<?xml version="1.0" standalone="no"?>
<!DOCTYPE svg PUBLIC "-//W3C//DTD SVG 20010904//EN"
 "http://www.w3.org/TR/2001/REC-SVG-20010904/DTD/svg10.dtd">
<svg version="1.0" xmlns="http://www.w3.org/2000/svg"
 width="512.000000pt" height="512.000000pt" viewBox="0 0 512.000000 512.000000"
 preserveAspectRatio="xMidYMid meet">
<metadata>
Created by potrace 1.14, written by Peter Selinger 2001-2017
</metadata>
<g transform="translate(0.000000,512.000000) scale(0.100000,-0.100000)"
fill="#000000" stroke="none">
<path d="M1140 4334 l0 -234 38 -1 c20 0 57 -2 82 -4 25 -3 66 -6 92 -8 56 -5
91 -25 111 -66 21 -43 20 -2901 -2 -2943 -27 -52 -80 -72 -226 -83 -44 -4 -86
-8 -93 -10 -10 -4 -12 -52 -10 -217 l3 -212 667 0 666 -1 1 228 0 227 -52 1
c-86 1 -220 8 -247 12 l-25 4 -1 309 -1 309 166 34 c233 47 215 50 260 -34 21
-38 51 -92 66 -120 65 -117 134 -244 165 -300 18 -33 46 -85 62 -115 17 -30
46 -84 66 -120 19 -36 38 -69 42 -75 4 -5 29 -50 55 -100 89 -166 136 -250
145 -255 4 -3 190 -5 412 -4 l403 0 1 222 c1 123 -2 224 -5 226 -6 4 -282 19
-317 18 -14 -1 -27 11 -42 41 -12 23 -33 62 -48 87 -26 45 -64 114 -112 200
-38 70 -70 127 -125 225 -27 50 -62 113 -77 140 -15 28 -59 106 -98 174 l-69
125 31 25 c214 176 392 476 440 741 2 14 7 36 10 50 3 14 8 38 10 54 3 16 7
31 10 33 3 3 59 7 125 8 67 2 125 6 130 9 5 3 8 106 7 228 l-1 223 -570 1
c-313 0 -575 -1 -581 -3 -6 -2 -10 -77 -10 -218 -1 -189 1 -215 15 -216 9 -1
44 -3 78 -5 145 -7 176 -12 200 -36 28 -29 33 -60 18 -123 -44 -182 -177 -365
-348 -478 -117 -78 -297 -146 -426 -163 -19 -2 -46 -6 -61 -9 l-27 -5 -1 1208
c0 664 -1 1212 -1 1219 -1 9 -121 12 -501 12 l-500 0 0 -235z"/>
</g>
</svg>
