<?xml version="1.0" standalone="no"?>
<!DOCTYPE svg PUBLIC "-//W3C//DTD SVG 20010904//EN"
 "http://www.w3.org/TR/2001/REC-SVG-20010904/DTD/svg10.dtd">
<svg version="1.0" xmlns="http://www.w3.org/2000/svg"
 width="693.000000pt" height="693.000000pt" viewBox="0 0 693.000000 693.000000"
 preserveAspectRatio="xMidYMid meet">
<metadata>
Created by potrace 1.14, written by Peter Selinger 2001-2017
</metadata>
<g transform="translate(0.000000,693.000000) scale(0.100000,-0.100000)"
fill="#000000" stroke="none">
<path d="M939 6875 c-4 0 -3 -795 1 -797 11 -3 206 -17 320 -23 142 -6 215
-55 241 -161 13 -51 14 -397 13 -2474 0 -1328 -4 -2430 -8 -2448 -30 -149
-110 -196 -366 -216 -115 -9 -196 -17 -210 -22 -13 -3 -15 -52 -15 -366 l1
-363 1147 -1 1147 -1 -2 386 -3 386 -40 2 c-46 1 -291 14 -350 18 -22 2 -68 3
-102 4 l-63 1 0 535 0 535 22 5 c21 4 174 30 243 41 17 3 80 16 140 30 61 14
121 27 135 30 14 3 46 11 71 19 46 13 47 13 60 -13 8 -15 28 -52 45 -82 17
-30 49 -89 71 -130 75 -139 106 -195 123 -225 10 -16 110 -199 223 -405 271
-496 268 -490 288 -525 10 -16 28 -50 40 -75 13 -25 39 -74 59 -110 21 -36 55
-99 78 -140 22 -41 67 -122 99 -180 l59 -105 702 -1 702 -1 1 46 c5 357 2 721
-6 722 -5 0 -17 2 -25 3 -8 2 -80 6 -160 10 -290 13 -375 17 -386 21 -11 3
-44 59 -144 240 -18 33 -42 76 -53 95 -96 172 -655 1178 -661 1190 -3 8 -26
49 -51 90 l-44 75 52 45 c59 50 239 229 280 277 252 300 429 696 497 1113 17
104 19 112 24 117 2 3 62 7 133 9 70 3 155 7 188 9 33 2 77 4 98 4 l37 1 0
390 0 390 -997 -2 -998 -3 0 -368 c0 -225 4 -371 10 -375 5 -3 30 -7 55 -8
380 -16 402 -19 443 -63 54 -58 55 -141 3 -296 -123 -366 -375 -648 -752 -839
-191 -97 -392 -155 -656 -191 l-48 -6 0 2088 0 2088 -855 0 c-470 0 -855 0
-856 0z"/>
</g>
</svg>
